<svg xmlns="http://www.w3.org/2000/svg" viewBox="0 0 32 32" fill="none" stroke="currentColor" stroke-width="1.8" stroke-linecap="round" stroke-linejoin="round">
  <!-- Ears -->
  <path d="M11 6.5l-2-3.5M21 6.5l2-3.5"/>
  <!-- Head -->
  <ellipse cx="16" cy="10" rx="6" ry="5.5"/>
  <!-- Eyes -->
  <circle cx="13" cy="9" r="0.8" fill="currentColor"/>
  <circle cx="19" cy="9" r="0.8" fill="currentColor"/>
  <!-- Nose/mouth -->
  <path d="M16 11.5l-1.5 1.5h3z"/>
  <path d="M14.5 13.5c0 0.8 0.7 1.5 1.5 1.5s1.5-0.7 1.5-1.5"/>
  <!-- Neck -->
  <path d="M12 14.5c-1 2-3 4-4 7"/>
  <path d="M20 14.5c1 2 3 4 4 7"/>
  <!-- Body -->
  <ellipse cx="16" cy="24" rx="8" ry="5"/>
  <!-- Legs -->
  <path d="M10 28l-1 3.5M14 28l-1 3.5M18 28l1 3.5M22 28l1 3.5"/>
  <!-- Fluffy chest -->
  <path d="M13 20c0 0 0.5 1 3 1s3-1 3-1"/>
</svg>
